<svg width="79" height="13" viewBox="0 0 79 13" fill="none" xmlns="http://www.w3.org/2000/svg">
<rect opacity="0.35" x="51.8849" y="0.5" width="24" height="12" rx="3" stroke="#1D1D1F"/>
<path opacity="0.4" d="M77.3849 4.66675V8.66675C78.1896 8.32797 78.7129 7.53988 78.7129 6.66675C78.7129 5.79361 78.1896 5.00552 77.3849 4.66675Z" fill="#1D1D1F"/>
<rect x="53.3849" y="2" width="21" height="9" rx="1.33333" fill="#1D1D1F"/>
<path fill-rule="evenodd" clip-rule="evenodd" d="M35.5521 3.06735C38.0187 3.06745 40.3909 3.96498 42.1785 5.57443C42.3131 5.69869 42.5283 5.69712 42.6609 5.57092L43.9476 4.3411C44.0148 4.27709 44.0522 4.19038 44.0516 4.10017C44.0511 4.00996 44.0126 3.92367 43.9447 3.86041C39.2527 -0.397806 31.8507 -0.397806 27.1588 3.86041C27.0908 3.92363 27.0523 4.00988 27.0516 4.1001C27.051 4.19031 27.0884 4.27704 27.1555 4.3411L28.4426 5.57092C28.5751 5.69731 28.7904 5.69888 28.925 5.57443C30.7128 3.96488 33.0853 3.06735 35.5521 3.06735ZM35.5503 7.17524C36.8964 7.17516 38.1945 7.67327 39.1923 8.57279C39.3273 8.70045 39.5399 8.69768 39.6714 8.56655L40.9481 7.28238C41.0153 7.21502 41.0526 7.12364 41.0516 7.02869C41.0506 6.93373 41.0115 6.84313 40.9429 6.77715C37.9044 3.96328 33.1989 3.96328 30.1603 6.77715C30.0917 6.84313 30.0526 6.93378 30.0517 7.02876C30.0508 7.12375 30.0882 7.21512 30.1556 7.28238L31.4318 8.56655C31.5634 8.69768 31.776 8.70045 31.9109 8.57279C32.9081 7.67386 34.2051 7.1758 35.5503 7.17524ZM38.0516 9.8944C38.0535 9.99694 38.0167 10.0958 37.95 10.1676L35.7913 12.557C35.728 12.6272 35.6417 12.6667 35.5517 12.6667C35.4617 12.6667 35.3754 12.6272 35.3122 12.557L33.1531 10.1676C33.0864 10.0958 33.0497 9.99686 33.0517 9.89431C33.0537 9.79177 33.0942 9.69466 33.1636 9.62592C34.5422 8.34702 36.5613 8.34702 37.9399 9.62592C38.0093 9.69472 38.0497 9.79185 38.0516 9.8944Z" fill="#1D1D1F"/>
<path fill-rule="evenodd" clip-rule="evenodd" d="M19.6515 1.79175C19.6515 1.17043 19.174 0.666748 18.5849 0.666748H17.5182C16.9291 0.666748 16.4515 1.17043 16.4515 1.79175V11.5417C16.4515 12.1631 16.9291 12.6667 17.5182 12.6667H18.5849C19.174 12.6667 19.6515 12.1631 19.6515 11.5417V1.79175ZM12.2182 3.06675H13.2849C13.874 3.06675 14.3515 3.58252 14.3515 4.21875V11.5147C14.3515 12.151 13.874 12.6667 13.2849 12.6667H12.2182C11.6291 12.6667 11.1515 12.151 11.1515 11.5147V4.21875C11.1515 3.58252 11.6291 3.06675 12.2182 3.06675ZM7.88487 5.66675H6.8182C6.2291 5.66675 5.75154 6.18908 5.75154 6.83341V11.5001C5.75154 12.1444 6.2291 12.6667 6.8182 12.6667H7.88487C8.47398 12.6667 8.95154 12.1444 8.95154 11.5001V6.83341C8.95154 6.18908 8.47398 5.66675 7.88487 5.66675ZM2.58487 8.06675H1.5182C0.929101 8.06675 0.451538 8.58162 0.451538 9.21675V11.5167C0.451538 12.1519 0.929101 12.6667 1.5182 12.6667H2.58487C3.17398 12.6667 3.65154 12.1519 3.65154 11.5167V9.21675C3.65154 8.58162 3.17398 8.06675 2.58487 8.06675Z" fill="#1D1D1F"/>
</svg>
