<svg width="55" height="21" viewBox="0 0 55 21" fill="none" xmlns="http://www.w3.org/2000/svg">
<path d="M15.5916 4.72314C18.1482 4.72314 20.3728 6.54102 20.3728 10.8574V10.874C20.3728 14.9082 18.5549 17.2988 15.5417 17.2988C13.342 17.2988 11.6985 15.9956 11.3167 14.1611L11.3 14.0698H13.4084L13.4333 14.1528C13.7488 14.9912 14.4875 15.5391 15.5417 15.5391C17.4426 15.5391 18.2478 13.6797 18.3391 11.3887C18.3391 11.2974 18.3474 11.2061 18.3474 11.1147H18.1814C17.7415 12.061 16.6956 12.8994 15.052 12.8994C12.7527 12.8994 11.1423 11.2227 11.1423 8.94824V8.93164C11.1423 6.49951 12.9934 4.72314 15.5916 4.72314ZM15.5833 11.2559C16.9363 11.2559 17.9739 10.2764 17.9739 8.92334V8.90674C17.9739 7.53711 16.9363 6.46631 15.6082 6.46631C14.2883 6.46631 13.2341 7.52051 13.2341 8.85693V8.87354C13.2341 10.2598 14.2219 11.2559 15.5833 11.2559ZM23.7334 9.23877C22.978 9.23877 22.4135 8.65771 22.4135 7.92725C22.4135 7.18848 22.978 6.61572 23.7334 6.61572C24.497 6.61572 25.0532 7.18848 25.0532 7.92725C25.0532 8.65771 24.497 9.23877 23.7334 9.23877ZM23.7334 15.3979C22.978 15.3979 22.4135 14.8252 22.4135 14.0864C22.4135 13.3477 22.978 12.7749 23.7334 12.7749C24.497 12.7749 25.0532 13.3477 25.0532 14.0864C25.0532 14.8252 24.497 15.3979 23.7334 15.3979ZM32.9045 17V14.7007H27.0441V12.9492C28.5964 10.2515 30.298 7.49561 31.925 5.02197H34.9548V12.9326H36.5651V14.7007H34.9548V17H32.9045ZM29.0363 12.9824H32.9377V6.73193H32.8132C31.5846 8.60791 30.1984 10.8242 29.0363 12.8579V12.9824ZM41.121 17V7.13037H40.9799L37.9999 9.23877V7.22168L41.1293 5.02197H43.2626V17H41.121Z" fill="#1D1D1F"/>
</svg>
